<?xml version="1.0" ?><svg xmlns="http://www.w3.org/2000/svg" xmlns:xlink="http://www.w3.org/1999/xlink" version="1.1" viewBox="0 0 64 64" style="enable-background:new 0 0 64 64;" xml:space="preserve"><g id="canned_drink"/><g id="canned_food"/><g id="loaction"/><g id="grilled_chicken"/><g id="car"/><g id="backpack"/><g id="picnic_table"/><g id="picnic_basket"/><g id="sand_beach"/><g id="bonfire"/><g id="tent"/><g id="portable_grill"/><g id="portable_stove"/><g id="signpost"/><g id="park"/><g id="hammock"/><g id="forest"/><g id="hill"><path d="M60.5,20.1l-15-9c-0.4-0.2-0.8-0.2-1.2,0.1L38.6,16L23.5,7.1c-0.3-0.2-0.8-0.2-1.1,0l-19,13C3.2,20.4,3,20.7,3,21v9   c0,0.1,0,0.2,0.1,0.3C3,30.5,3,30.8,3,31v1v10v14c0,0.6,0.4,1,1,1h41h15c0.6,0,1-0.4,1-1V36v-4v-1V21C61,20.6,60.8,20.3,60.5,20.1z    M45.1,13.2L59,21.6v6c-0.4-0.2-0.9-0.4-1.4-0.5c-0.8-1.8-2.6-3-4.6-3c-0.2,0-0.4,0-0.7,0l-11.9-7L45.1,13.2z M14.4,42.2   C9.9,41.4,6.6,41.1,5,41v-8h54v2c-4.9,0.1-26.6,0.9-44.3,7C14.6,42.1,14.5,42.2,14.4,42.2z M50.3,27.8c0.5-1.1,1.6-1.8,2.7-1.8   c1.4,0,2.6,0.9,2.9,2.3c0.1,0.4,0.5,0.8,1,0.8c0,0,0.1,0,0.2,0c1.1,0,2,0.9,2,2H5c0-1.1,0.9-2,1.9-2c0,0,0.1,0,0.2,0   c0.5,0,0.9-0.3,1-0.8C8.4,26.9,9.6,26,11,26c1.2,0,2.2,0.7,2.7,1.8c0.1,0.2,0.3,0.4,0.6,0.5c0.3,0.1,0.5,0.1,0.8-0.1   c0.5-0.3,1.1-0.3,1.7-0.1c0.3,0.1,0.6,0.1,0.8,0c0.3-0.1,0.4-0.4,0.5-0.6c0.2-0.9,1-1.5,1.9-1.5c0.8,0,1.5,0.4,1.8,1.2   c0.1,0.3,0.4,0.5,0.6,0.5c0.3,0.1,0.6,0,0.8-0.1c0.5-0.4,1.1-0.5,1.7-0.5c1.1,0,2.1,0.6,2.6,1.6c0.2,0.4,0.7,0.6,1.1,0.5   c0.4-0.1,0.8-0.5,0.8-0.9c0.1-1.5,1.3-2.2,2.5-2.2s2.4,0.7,2.5,2.2c0,0.4,0.3,0.8,0.8,0.9c0.4,0.1,0.9-0.1,1.1-0.5   c0.5-1,1.5-1.6,2.6-1.6c0.6,0,1.2,0.2,1.7,0.5c0.2,0.2,0.5,0.2,0.8,0.1c0.3-0.1,0.5-0.3,0.6-0.5c0.3-0.7,1-1.2,1.8-1.2   c0.9,0,1.7,0.6,1.9,1.5c0.1,0.3,0.3,0.5,0.5,0.6c0.3,0.1,0.6,0.1,0.8,0c0.5-0.2,1.1-0.2,1.7,0.1c0.2,0.1,0.5,0.1,0.8,0.1   C50,28.2,50.2,28,50.3,27.8z M23,9.2L50,25c-0.4,0.3-0.8,0.7-1.1,1.1C48.5,26,48,26,47.5,26c-0.7-1.2-2-2-3.5-2   c-1.2,0-2.3,0.5-3,1.4c-1.6-0.7-3.7-0.4-5.1,0.7C35.1,24.7,33.5,24,32,24c-1.5,0-3.1,0.7-3.9,2.1c-1.4-1.1-3.4-1.4-5-0.7   c-0.8-0.9-1.9-1.4-3-1.4c-1.5,0-2.8,0.8-3.5,2c-0.5-0.1-1,0-1.5,0.1C14.1,24.8,12.6,24,11,24c-2,0-3.8,1.2-4.6,3   c-0.5,0.1-1,0.3-1.4,0.5v-6L23,9.2z M5,55V43c4.1,0.2,20.5,1.7,36.7,12H5z M59,55H45.3c-9.6-6.7-19.5-10.2-27.2-12   c16.8-5.2,36.3-5.9,40.9-6V55z"/></g><g id="beach"/><g id="camping"/></svg>